<?xml version="1.0" encoding="UTF-8" standalone="no"?>
<svg width="362px" height="339px" viewBox="0 0 362 339" version="1.1" xmlns="http://www.w3.org/2000/svg" xmlns:xlink="http://www.w3.org/1999/xlink" xmlns:sketch="http://www.bohemiancoding.com/sketch/ns">
    <title>on</title>
    <description>Created with Sketch (http://www.bohemiancoding.com/sketch)</description>
    <defs></defs>
    <g id="Page-1" stroke="none" stroke-width="1" fill="none" fill-rule="evenodd" sketch:type="MSPage">
        <g id="on" sketch:type="MSArtboardGroup">
            <g id="circle" sketch:type="MSLayerGroup">
                <g id="Group-+-Oval-2" transform="translate(181.000000, 169.500000) scale(-1, 1) rotate(87.000000) translate(-181.000000, -169.500000) translate(20.000000, -3.000000)" sketch:type="MSShapeGroup">
                    <g id="Group" transform="translate(244.831120, 52.589230) rotate(32.000000) translate(-244.831120, -52.589230) translate(195.831120, 21.589230)" fill="#7ED321">
                        <circle id="Oval-1" cx="67" cy="31" r="31"></circle>
                        <rect id="Rectangle-1" x="30" y="-2.84217094e-14" width="37" height="62" rx="8"></rect>
                        <rect id="Rectangle-2" x="0" y="8" width="37" height="14" rx="8"></rect>
                        <rect id="Rectangle-2-copy" x="1.13686838e-13" y="37" width="37" height="14" rx="8"></rect>
                    </g>
                    <path d="M161,23 C113.528662,23 70.8559418,43.5453142 41.3886641,76.2291183 C15.6612287,104.764857 -2.84217094e-14,142.553489 -2.84217094e-14,184 C-2.84217094e-14,272.917849 72.0821509,345 161,345 C249.917849,345 322,272.917849 322,184 C322,142.287053 306.136772,104.279165 280.113929,75.6799478" id="Oval-2" stroke="#7ED321" stroke-width="12"></path>
                </g>
                <path d="M141.151586,294 L177.214418,194.460195 L107,176.285383 L233.187063,45 L186.788568,145.412935 L257,163.590727 L141.151586,294 Z" id="Shape" fill="#417505" sketch:type="MSShapeGroup"></path>
            </g>
        </g>
    </g>
</svg>